<svg xmlns="http://www.w3.org/2000/svg" xmlns:svg="http://www.w3.org/2000/svg" id="svg2" width="589.868" height="532.512" version="1.1"><defs id="defs4"><marker id="Arrow2Lend" orient="auto" overflow="visible" refX="0" refY="0"><path id="path3857" fill-rule="evenodd" stroke-linejoin="round" stroke-width=".625" d="M 8.7185878,4.0337352 -2.2072895,0.01601326 8.7185884,-4.0017078 c -1.7454984,2.3720609 -1.7354408,5.6174519 -6e-7,8.035443 z" transform="matrix(-1.1,0,0,-1.1,-1.1,0)"/></marker><marker id="Arrow2Lend-3" orient="auto" overflow="visible" refX="0" refY="0"><path id="path3857-5" fill-rule="evenodd" stroke-linejoin="round" stroke-width=".625" d="M 8.7185878,4.0337352 -2.2072895,0.01601326 8.7185884,-4.0017078 c -1.7454984,2.3720609 -1.7354408,5.6174519 -6e-7,8.035443 z" transform="matrix(-1.1,0,0,-1.1,-1.1,0)"/></marker></defs><metadata id="metadata7"/><g id="layer1" transform="translate(-96.410679,217.95483)"><path id="path3766" fill="#000" fill-opacity="0" stroke="#000" stroke-dasharray="none" stroke-miterlimit="4" stroke-opacity="1" stroke-width="2" d="m 544.28572,588.79077 c 0,39.05442 -92.10142,70.71429 -205.71428,70.71429 -113.61286,0 -205.71428,-31.65987 -205.71428,-70.71429 0,-39.05442 92.10142,-70.71429 205.71428,-70.71429 113.61286,0 205.71428,31.65987 205.71428,70.71429 z" transform="matrix(1,0,0,1.1278581,0,-730.60879)"/><g id="g3782" transform="translate(61.428571,-349.14286)"><path id="path3780" fill="#52b4ff" fill-opacity="1" stroke="#000" stroke-dasharray="none" stroke-miterlimit="4" stroke-opacity="1" stroke-width="2" d="m 304.28571,282.36218 c 0,34.71504 -43.81213,62.85715 -97.85714,62.85715 -54.045,0 -97.85714,-28.14211 -97.85714,-62.85715 0,-34.71504 43.81214,-62.85714 97.85714,-62.85714 54.04501,0 97.85714,28.1421 97.85714,62.85714 z" transform="matrix(0.92727271,0,0,1.0231405,15.012992,-6.2896699)"/><text font-stretch="normal" style="line-height:125%;-inkscape-font-specification:Droid Sans" id="text3768" x="206.921" y="272.292" fill="#000" fill-opacity="1" stroke="none" font-family="Droid Sans" font-size="40" font-style="normal" font-variant="normal" font-weight="normal" letter-spacing="0" word-spacing="0" xml:space="preserve"><tspan id="tspan3770" x="206.921" y="272.292" font-family="Droid Sans" font-size="32" font-stretch="normal" font-style="normal" font-variant="normal" font-weight="normal" text-anchor="middle" style="text-align:center;-inkscape-font-specification:Droid Sans">Python</tspan><tspan id="tspan3772" x="206.921" y="312.292" font-family="Droid Sans" font-size="32" font-stretch="normal" font-style="normal" font-variant="normal" font-weight="normal" text-anchor="middle" style="text-align:center;-inkscape-font-specification:Droid Sans">execution</tspan></text></g><text id="text3788" x="390" y="-76.035" fill="#000" fill-opacity="1" stroke="none" font-family="Droid Sans" font-size="40" font-stretch="normal" font-style="normal" font-variant="normal" font-weight="normal" letter-spacing="0" word-spacing="0" xml:space="preserve" style="line-height:125%;-inkscape-font-specification:Droid Sans"><tspan style="-inkscape-font-specification:Droid Sans" id="tspan3790" x="390" y="-76.035" font-family="Droid Sans" font-size="32" font-stretch="normal" font-style="normal" font-variant="normal" font-weight="normal">stdin &amp;</tspan><tspan style="-inkscape-font-specification:Droid Sans" id="tspan3792" x="390" y="-36.035" font-family="Droid Sans" font-size="32" font-stretch="normal" font-style="normal" font-variant="normal" font-weight="normal">stdout</tspan></text><text id="text3794" x="517.143" y="-158.209" fill="#000" fill-opacity="1" stroke="none" font-family="Droid Sans" font-size="32" font-stretch="normal" font-style="normal" font-variant="normal" font-weight="bold" letter-spacing="0" text-anchor="start" word-spacing="0" writing-mode="lr-tb" xml:space="preserve" style="text-align:start;line-height:125%;-inkscape-font-specification:Droid Sans Bold"><tspan id="tspan3796" x="517.143" y="-158.209">Terminal</tspan><tspan id="tspan3800" x="517.143" y="-118.209">IPython</tspan></text><path id="path3798" fill="#52b4ff" fill-opacity="0" stroke="#000" stroke-dasharray="none" stroke-miterlimit="4" stroke-opacity="1" stroke-width="2" d="m 360,685.93359 c 0,108.48451 -44.77153,196.42858 -100,196.42858 -55.22847,0 -100,-87.94407 -100,-196.42858 0,-108.4845 44.77153,-196.42857 100,-196.42857 55.22847,0 100,87.94407 100,196.42857 z" transform="matrix(1.1189801,0,0,0.92946844,-23.322527,-628.33705)"/><text id="text3802" x="228.571" y="84.648" fill="#000" fill-opacity="1" stroke="none" font-family="Droid Sans" font-size="32" font-stretch="normal" font-style="normal" font-variant="normal" font-weight="normal" letter-spacing="0" text-anchor="start" word-spacing="0" writing-mode="lr-tb" xml:space="preserve" style="text-align:start;line-height:125%;-inkscape-font-specification:Droid Sans"><tspan id="tspan3804" x="228.571" y="84.648">JSON,</tspan><tspan id="tspan3806" x="228.571" y="124.648">ØMQ</tspan></text><text id="text3808" x="368.571" y="128.934" fill="#000" fill-opacity="1" stroke="none" font-family="Droid Sans" font-size="32" font-stretch="normal" font-style="normal" font-variant="normal" font-weight="bold" letter-spacing="0" text-anchor="start" word-spacing="0" writing-mode="lr-tb" xml:space="preserve" style="text-align:start;line-height:125%;-inkscape-font-specification:Droid Sans Bold"><tspan id="tspan3810" x="368.571" y="128.934">IPython</tspan><tspan id="tspan3812" x="368.571" y="168.934">Kernel</tspan></text><g id="g3816" fill="#52b4ff" fill-opacity="0" stroke="#000" stroke-dasharray="none" stroke-miterlimit="4" stroke-opacity="1" stroke-width="2"><path id="path3828" fill="#e9e9ff" fill-rule="evenodd" stroke="none" d="m 508.07326,-461.53631 154.81767,-93.98694 0,197.53457 -154.81767,40.00122 z"/><path id="path3818" fill="#353564" fill-rule="evenodd" stroke="none" d="m 307.83925,-554.01393 0,225.10607 200.23401,10.9204 0,-143.54885 z"/><path id="path3820" fill="#4d4d9f" fill-rule="evenodd" stroke="none" d="m 307.83925,-554.01393 158.57143,-256.79275 196.48025,255.28343 -154.81767,93.98694 z"/><path id="path3826" fill="#afafde" fill-rule="evenodd" stroke="none" d="m 307.83925,-328.90786 158.57143,-87.96321 196.48025,58.88239 -154.81767,40.00122 z"/><path id="path3824" fill="#d7d7ff" fill-rule="evenodd" stroke="none" d="m 466.41068,-810.80668 0,393.93561 196.48025,58.88239 0,-197.53457 z"/><path id="path3822" fill="#8686bf" fill-rule="evenodd" stroke="none" d="m 307.83925,-554.01393 158.57143,-256.79275 0,393.93561 -158.57143,87.96321 z"/></g><g id="g4300" transform="translate(1.924434,-652)"><path id="path3830" fill="none" stroke="#000" stroke-dasharray="none" stroke-linecap="butt" stroke-linejoin="miter" stroke-miterlimit="4" stroke-opacity="1" stroke-width="3" marker-end="url(#Arrow2Lend)" d="m 275.71429,841.83443 0,84.28572"/><path id="path3830-6" fill="none" stroke="#000" stroke-dasharray="none" stroke-linecap="butt" stroke-linejoin="miter" stroke-miterlimit="4" stroke-opacity="1" stroke-width="3" marker-end="url(#Arrow2Lend)" d="m 255.66144,928.60421 0,-84.28572"/></g><text id="text4304" x="292.857" y="267.505" fill="#000" fill-opacity="1" stroke="none" font-family="Droid Sans" font-size="32" font-stretch="normal" font-style="normal" font-variant="normal" font-weight="normal" letter-spacing="0" text-anchor="start" word-spacing="0" writing-mode="lr-tb" xml:space="preserve" style="text-align:start;line-height:125%;-inkscape-font-specification:Droid Sans"><tspan style="-inkscape-font-specification:Droid Sans Italic" id="tspan4306" x="292.857" y="267.505" font-size="24" font-style="italic">Messages</tspan></text></g></svg>